#!OML:ASF E:\inclinewalkrobotboard\Project 1\Capture day 1\Session 1\subject1.ASF
:FULLY-SPECIFIED
:DEGREES
382
root 8.71082 25.2544 -12.4212 -171.263 3.43614 177.441
lowerback -6.12274 1.2885 -7.02453
upperback 2.02465 2.29321 0.460455
thorax 5.2722 0.896494 4.66778
lowerneck 2.5739 -2.95353 -4.30746
upperneck 13.5612 -4.95905 -0.301312
head 4.09129 -3.07248 0.480774
rclavicle 1.59276e-014 -8.94531e-015
rhumerus -39.7662 -26.3195 -71.6229
rradius 27.0959
rwrist 12.3789
rhand -13.2939 -36.6959
rfingers 7.12502
rthumb 12.8098 -66.2829
lclavicle 1.59276e-014 -8.94531e-015
lhumerus -32.391 14.3908 78.7147
lradius 17.2273
lwrist -30.791
lhand -24.8718 -22.9317
lfingers 7.12502
lthumb 1.63543 7.04182
rfemur -9.73018 6.09233 15.6795
rtibia 12.378
rfoot -22.5729 -2.17103
rtoes -24.8617
lfemur -8.79487 -8.91561 -22.7337
ltibia 11.0492
lfoot -25.8629 -0.609572
ltoes -38.9208
383
root 8.7248 25.252 -12.4396 -171.137 3.20725 177.459
lowerback -6.2671 1.36099 -7.04836
upperback 1.91133 2.39866 0.43803
thorax 5.22083 0.952638 4.67048
lowerneck 2.76446 -3.11297 -4.23408
upperneck 13.2785 -5.14566 -0.430569
head 3.95085 -3.15236 0.428875
rclavicle 2.65129e-014 -1.11319e-014
rhumerus -39.3923 -25.8726 -72.3181
rradius 27.4881
rwrist 11.9057
rhand -13.2662 -37.5611
rfingers 7.12502
rthumb 12.8366 -67.1464
lclavicle 2.65129e-014 -1.11319e-014
lhumerus -32.2271 13.2807 79.4117
lradius 17.9888
lwrist -29.6301
lhand -24.3733 -22.5719
lfingers 7.12502
lthumb 2.11687 7.39735
rfemur -9.78296 6.18185 15.7684
rtibia 12.4439
rfoot -22.7065 -2.46494
rtoes -24.573
lfemur -8.93034 -8.93666 -22.6136
ltibia 11.1226
lfoot -25.8432 -0.792687
ltoes -38.8271
384
root 8.73356 25.2509 -12.4582 -171.162 2.80058 177.493
lowerback -6.25312 1.32292 -7.02195
upperback 1.88191 2.33999 0.482672
thorax 5.18844 0.925368 4.69573
lowerneck 2.6524 -3.21311 -4.38378
upperneck 13.0409 -5.22553 -0.536201
head 3.89065 -3.18473 0.419459
rclavicle -2.73329e-015 1.15295e-014
rhumerus -38.9352 -25.3713 -72.9413
rradius 27.8041
rwrist 11.8037
rhand -13.4447 -37.645
rfingers 7.12502
rthumb 12.6645 -67.241
lclavicle -2.73329e-015 1.15295e-014
lhumerus -32.0817 12.81 79.9614
lradius 18.696
lwrist -28.8087
lhand -24.4119 -22.5896
lfingers 7.12502
lthumb 2.07951 7.38002
rfemur -9.58532 6.02 15.8973
rtibia 12.4278
rfoot -22.843 -2.74977
rtoes -25.0771
lfemur -9.20921 -8.76962 -22.495
ltibia 11.7535
lfoot -25.995 -1.3461
ltoes -38.69
385
root 8.73335 25.2487 -12.4919 -171.213 2.52391 177.531
lowerback -6.45717 1.37742 -6.86217
upperback 1.86198 2.41656 0.433936
thorax 5.28093 0.965834 4.56942
lowerneck 2.6246 -3.34245 -4.35235
upperneck 12.7546 -5.3479 -0.64366
head 3.79185 -3.22785 0.380141
rclavicle -5.2181e-015 3.4191e-014
rhumerus -38.853 -24.8676 -73.5509
rradius 28.3495
rwrist 11.6061
rhand -13.6365 -37.4214
rfingers 7.12502
rthumb 12.4796 -67.0288
lclavicle -5.2181e-015 3.4191e-014
lhumerus -32.0384 11.7088 80.6009
lradius 19.4929
lwrist -27.552
lhand -24.5672 -22.6745
lfingers 7.12502
lthumb 1.9296 7.29656
rfemur -9.25271 5.71669 15.973
rtibia 12.288
rfoot -22.9502 -2.7297
rtoes -25.4953
lfemur -9.07597 -8.85519 -22.4947
ltibia 11.8573
lfoot -26.0831 -1.4885
ltoes -38.6733
386
root 8.74191 25.2482 -12.5082 -171.242 1.98869 177.476
lowerback -6.36202 1.23306 -6.97529
upperback 1.83109 2.22089 0.500231
thorax 5.21318 0.867516 4.67945
lowerneck 2.92244 -3.31379 -4.20104
upperneck 12.3189 -5.26517 -0.98754
head 3.56246 -3.17614 0.259061
rclavicle -9.93923e-016 -1.19271e-014
rhumerus -38.4214 -24.1338 -74.2026
rradius 28.7526
rwrist 11.565
rhand -13.4986 -37.314
rfingers 7.12502
rthumb 12.6125 -66.9132
lclavicle -9.93923e-016 -1.19271e-014
lhumerus -31.777 11.1795 81.1791
lradius 20.0028
lwrist -26.5524
lhand -24.2374 -22.3984
lfingers 7.12502
lthumb 2.24812 7.56949
rfemur -8.94836 5.44095 15.9928
rtibia 12.1188
rfoot -23.0268 -2.93513
rtoes -24.9459
lfemur -9.10132 -8.94429 -22.508
ltibia 12.022
lfoot -26.0321 -1.85894
ltoes -38.8085
387
root 8.74649 25.2457 -12.5343 -171.199 1.65112 177.493
lowerback -6.49923 1.20124 -6.9364
upperback 1.79889 2.18251 0.522417
thorax 5.26263 0.847786 4.68148
lowerneck 2.47982 -3.41041 -4.45293
upperneck 12.2512 -5.3351 -0.966403
head 3.6328 -3.20502 0.298412
rclavicle -1.6027e-014 -1.37161e-014
rhumerus -38.0087 -23.5894 -74.7854
rradius 29.0759
rwrist 11.5621
rhand -13.1443 -37.5592
rfingers 7.12502
rthumb 12.9541 -67.1371
lclavicle -1.6027e-014 -1.37161e-014
lhumerus -31.3864 11.0206 81.5509
lradius 20.1172
lwrist -26.4231
lhand -24.1596 -22.1942
lfingers 7.12502
lthumb 2.32323 7.77289
rfemur -8.74565 5.23632 16.0549
rtibia 12.0015
rfoot -23.0985 -3.01251
rtoes -25.9076
lfemur -9.09731 -8.98416 -22.4669
ltibia 12.087
lfoot -26.0805 -2.1288
ltoes -38.986
388
root 8.75321 25.2429 -12.5499 -171.162 1.46749 177.455
lowerback -6.5157 1.24154 -6.98232
upperback 1.71303 2.23985 0.490271
thorax 5.17351 0.881031 4.67779
lowerneck 2.44483 -3.50572 -4.45144
upperneck 12.0168 -5.42877 -0.994808
head 3.55783 -3.23615 0.290216
rclavicle -8.22472e-015 -5.76476e-015
rhumerus -37.7188 -23.0361 -75.345
rradius 29.3866
rwrist 11.4941
rhand -12.727 -38.0242
rfingers 7.12502
rthumb 13.3564 -67.5761
lclavicle -8.22472e-015 -5.76476e-015
lhumerus -31.1599 10.6278 81.9416
lradius 20.3723
lwrist -26.2665
lhand -24.3286 -22.0565
lfingers 7.12502
lthumb 2.15997 7.91233
rfemur -8.69078 5.22422 16.0581
rtibia 12.0031
rfoot -23.1799 -3.18642
rtoes -25.3142
lfemur -9.13434 -8.92623 -22.4629
ltibia 12.1619
lfoot -26.0389 -2.3674
ltoes -38.7946
